<?xml version="1.0" encoding="UTF-8"?>
<svg width="20px" height="21px" viewBox="0 0 20 21" version="1.1" xmlns="http://www.w3.org/2000/svg" xmlns:xlink="http://www.w3.org/1999/xlink">
    <!-- Generator: sketchtool 55 (78076) - https://sketchapp.com -->
    <title>44093609-5497-4D45-8F89-92CBB8CBFF62</title>
    <desc>Created with sketchtool.</desc>
    <defs>
        <path d="M17.0369709,11.9166667 L8.25,11.9166667 C7.74373898,11.9166667 7.33333333,11.506261 7.33333333,11 C7.33333333,10.493739 7.74373898,10.0833333 8.25,10.0833333 L17.0369709,10.0833333 L14.9351521,7.98151455 C14.5771715,7.62353395 14.5771715,7.04313272 14.9351521,6.68515212 C15.2931327,6.32717152 15.8735339,6.32717152 16.2315145,6.68515212 L19.8981812,10.3518188 C20.2561618,10.7097994 20.2561618,11.2902006 19.8981812,11.6481812 L16.2315145,15.3148479 C15.8735339,15.6728285 15.2931327,15.6728285 14.9351521,15.3148479 C14.5771715,14.9568673 14.5771715,14.3764661 14.9351521,14.0184855 L17.0369709,11.9166667 Z M9.16666667,19.25 C9.67292769,19.25 10.0833333,19.6604056 10.0833333,20.1666667 C10.0833333,20.6729277 9.67292769,21.0833333 9.16666667,21.0833333 L4.58333333,21.0833333 C3.06455027,21.0833333 1.83333333,19.8521164 1.83333333,18.3333333 L1.83333333,3.66666667 C1.83333333,2.1478836 3.06455027,0.916666667 4.58333333,0.916666667 L9.16666667,0.916666667 C9.67292769,0.916666667 10.0833333,1.32707231 10.0833333,1.83333333 C10.0833333,2.33959435 9.67292769,2.75 9.16666667,2.75 L4.58333333,2.75 C4.07707231,2.75 3.66666667,3.16040565 3.66666667,3.66666667 L3.66666667,18.3333333 C3.66666667,18.8395944 4.07707231,19.25 4.58333333,19.25 L9.16666667,19.25 Z" id="path-1"></path>
    </defs>
    <g id="Page-1" stroke="none" stroke-width="1" fill="none" fill-rule="evenodd">
        <g id="1.-Open-Portal-Home-Page" transform="translate(-1291.000000, -34.000000)">
            <g id="Desktop/MemberNavigation/MemberSearch">
                <g id="Logout" transform="translate(1290.000000, 33.371429)">
                    <g id="Icon-Copy" transform="translate(0.000000, 0.471429)">
                        <mask id="mask-2" fill="white">
                            <use xlink:href="#path-1"></use>
                        </mask>
                        <use id="Shape" fill="#7A7E81" fill-rule="nonzero" xlink:href="#path-1"></use>
                    </g>
                </g>
            </g>
        </g>
    </g>
</svg>