<?xml version="1.0" encoding="UTF-8"?>
<svg width="14px" height="14px" viewBox="0 0 14 14" version="1.1" xmlns="http://www.w3.org/2000/svg" xmlns:xlink="http://www.w3.org/1999/xlink">
    <!-- Generator: sketchtool 55 (78076) - https://sketchapp.com -->
    <title>F9089532-146F-4B47-87D2-6EF18FC66C27</title>
    <desc>Created with sketchtool.</desc>
    <defs>
        <path d="M7.82495791,7 L9.16247896,8.33752104 C9.39028479,8.56532688 9.39028479,8.93467312 9.16247896,9.16247896 C8.93467312,9.39028479 8.56532688,9.39028479 8.33752104,9.16247896 L7,7.82495791 L5.66247896,9.16247896 C5.43467312,9.39028479 5.06532688,9.39028479 4.83752104,9.16247896 C4.60971521,8.93467312 4.60971521,8.56532688 4.83752104,8.33752104 L6.17504209,7 L4.83752104,5.66247896 C4.60971521,5.43467312 4.60971521,5.06532688 4.83752104,4.83752104 C5.06532688,4.60971521 5.43467312,4.60971521 5.66247896,4.83752104 L7,6.17504209 L8.33752104,4.83752104 C8.56532688,4.60971521 8.93467312,4.60971521 9.16247896,4.83752104 C9.39028479,5.06532688 9.39028479,5.43467312 9.16247896,5.66247896 L7.82495791,7 Z M7,13.4166667 C3.45617286,13.4166667 0.583333333,10.5438271 0.583333333,7 C0.583333333,3.45617286 3.45617286,0.583333333 7,0.583333333 C10.5438271,0.583333333 13.4166667,3.45617286 13.4166667,7 C13.4166667,10.5438271 10.5438271,13.4166667 7,13.4166667 Z M7,12.25 C9.89949494,12.25 12.25,9.89949494 12.25,7 C12.25,4.10050506 9.89949494,1.75 7,1.75 C4.10050506,1.75 1.75,4.10050506 1.75,7 C1.75,9.89949494 4.10050506,12.25 7,12.25 Z" id="path-1"></path>
    </defs>
    <g id="Page-1" stroke="none" stroke-width="1" fill="none" fill-rule="evenodd">
        <g id="1a.-Open-Portal-Search-ID#" transform="translate(-1001.000000, -286.000000)">
            <g id="Icon/x-circle" transform="translate(1001.000000, 286.000000)">
                <mask id="mask-2" fill="white">
                    <use xlink:href="#path-1"></use>
                </mask>
                <use id="Shape" fill="#7A7E81" fill-rule="nonzero" xlink:href="#path-1"></use>
            </g>
        </g>
    </g>
</svg>